<?xml version="1.0" encoding="UTF-8"?>
<!DOCTYPE svg PUBLIC "-//W3C//DTD SVG 1.1//EN" "http://www.w3.org/Graphics/SVG/1.1/DTD/svg11.dtd">
<!-- Creator: CorelDRAW X7 -->
<svg xmlns="http://www.w3.org/2000/svg" xml:space="preserve" width="279.4mm" height="215.9mm" version="1.1" style="shape-rendering:geometricPrecision; text-rendering:geometricPrecision; image-rendering:optimizeQuality; fill-rule:evenodd; clip-rule:evenodd"
viewBox="0 0 27940 21590"
 xmlns:xlink="http://www.w3.org/1999/xlink">
 <defs>
  <style type="text/css">
   <![CDATA[
    .fil0 {fill:#FEFEFE}
    .fil3 {fill:#FFF212}
    .fil5 {fill:#EB8D36}
    .fil1 {fill:black}
    .fil4 {fill:url(#id4)}
    .fil2 {fill:url(#id5)}
   ]]>
  </style>
    <mask id="id0">
  <linearGradient id="id1" gradientUnits="userSpaceOnUse" x1="13971.5" y1="9547.35" x2="17340.6" y2="9059.81">
   <stop offset="0" style="stop-opacity:1; stop-color:white"/>
   <stop offset="1" style="stop-opacity:0; stop-color:white"/>
  </linearGradient>
     <rect style="fill:url(#id1)" x="13189" y="7103" width="4934" height="4401"/>
    </mask>
    <mask id="id2">
  <linearGradient id="id3" gradientUnits="userSpaceOnUse" x1="13919" y1="10159.1" x2="10717.3" y2="14416.6">
   <stop offset="0" style="stop-opacity:1; stop-color:white"/>
   <stop offset="1" style="stop-opacity:0; stop-color:white"/>
  </linearGradient>
     <rect style="fill:url(#id3)" x="9817" y="10087" width="5002" height="4402"/>
    </mask>
  <linearGradient id="id4" gradientUnits="userSpaceOnUse" x1="11257.5" y1="10003" x2="13366.5" y2="14572.5">
   <stop offset="0" style="stop-opacity:1; stop-color:#ED3237"/>
   <stop offset="1" style="stop-opacity:1; stop-color:#953132"/>
  </linearGradient>
  <linearGradient id="id5" gradientUnits="userSpaceOnUse" x1="14773.1" y1="7033.95" x2="16551.8" y2="11572.9">
   <stop offset="0" style="stop-opacity:1; stop-color:#A8CF45"/>
   <stop offset="1" style="stop-opacity:1; stop-color:#00AB59"/>
  </linearGradient>
 </defs>
 <g id="Layer_x0020_1">
  <metadata id="CorelCorpID_0Corel-Layer"/>
  <rect class="fil0" y="5783" width="27940" height="10023"/>
  <g id="_376967456">
   <path class="fil1" d="M17461 8294c17,6 33,13 49,20 63,-61 145,-104 238,-118 4,0 7,-1 11,-1l334 -52c120,-18 236,14 328,82 92,67 158,169 177,289 0,4 1,7 1,11l51 329c18,120 -14,237 -82,328 -21,29 -45,55 -72,78 5,16 8,32 11,49l24 156c15,101 -12,201 -69,279 -58,78 -145,134 -248,150l-142 22c-7,1 -15,3 -22,3 -81,11 -161,-6 -228,-43 -59,79 -146,138 -248,161 -13,3 -26,5 -39,7l-280 43c-115,18 -227,-14 -315,-78l-2 -2c-29,15 -61,25 -95,30l-435 67 70 38 0 1c7,4 14,8 22,13 17,11 39,25 58,36 93,59 139,88 193,174 52,82 59,135 73,241 1,4 2,8 12,76l111 724 0 0 0 3c3,15 4,30 4,45 2,42 1,83 -6,123 -8,46 -23,92 -43,136 -8,18 -18,37 -29,54l0 0 0 0c-72,116 -182,196 -305,233 -121,36 -255,29 -377,-28 -12,-5 -23,-11 -35,-17l-3202 -1737 0 0c-18,-10 -38,-23 -61,-39 -21,-16 -42,-33 -60,-50 -105,-102 -160,-238 -162,-375 -2,-135 47,-271 147,-377l3 -3 2515 -2601c39,-46 87,-86 141,-118 57,-33 120,-56 188,-66 145,-23 286,17 397,98 111,81 191,205 214,352l120 783c12,78 5,32 7,46 12,75 19,118 9,179 -1,14 -4,28 -8,42 -21,85 -49,119 -102,187 -8,9 -17,21 -32,41l-1 0c-7,10 -16,20 -25,29l-91 95 1127 -174c64,-9 126,1 181,26zm-7193 3480c14,-13 29,-26 45,-37 44,-39 99,-66 161,-75l2 -1 0 -1 29 -4 2 -1 0 0 624 -95 468 -72 -114 -62c-19,-10 -36,-22 -52,-35 -17,-12 -21,-15 -24,-17l0 1c-71,-48 -107,-72 -154,-147 -5,-9 -10,-18 -15,-27 -33,-61 -39,-105 -51,-186l0 0 -7 -47 -121 -783c-22,-145 17,-287 99,-397 81,-111 205,-191 351,-214 66,-10 133,-7 198,8 59,13 113,35 162,65l3187 1728c10,5 19,11 28,17 114,71 193,180 230,301l0 0c39,131 28,277 -42,407 -4,7 -8,15 -12,21 -11,18 -21,33 -30,46 -13,17 -28,35 -47,53l0 0 -2536 2623 -5 4c-101,104 -236,157 -372,159 -136,3 -274,-47 -380,-149l0 0c-43,-42 -78,-89 -104,-140 -24,-47 -41,-96 -51,-145 -1,-6 -2,-11 -3,-17l0 -3 -1 0 -111 -724c-7,-40 -10,-59 -12,-75 -18,-104 -28,-156 -3,-251 26,-98 61,-139 133,-223 22,-26 42,-49 44,-52 6,-7 11,-13 17,-19l0 0 56 -59 -438 68c-33,5 -66,4 -97,0l-2 1c-64,89 -162,152 -277,170 -4,1 -7,1 -11,1l-281 44c-113,17 -224,-13 -312,-76 -55,58 -130,98 -215,111l-155 24 -1 0c-101,16 -201,-12 -278,-69 -78,-57 -134,-143 -150,-246l0 -2 -1 0 -24 -155 0 -1c-2,-15 -4,-31 -4,-47 -33,-14 -63,-31 -92,-52 -92,-68 -158,-170 -177,-291l-52 -338 0 -1c-18,-120 14,-236 82,-328 65,-89 164,-155 281,-175l2 0 6 -1 1 -1 344 -52c92,-15 183,2 262,41z"/>
   <path class="fil2" d="M16794 9710l9 -1c83,-13 140,-91 127,-174l-44 -287 499 -77c66,-10 112,-73 102,-139l-52 -339c-9,-55 -54,-96 -107,-102l0 -5 -2070 319 755 -781c99,-130 91,-85 65,-253l-120 -784c-18,-117 -128,-197 -245,-179 -56,8 -103,38 -136,78l-2525 2611c-82,85 -80,221 5,303 15,15 32,27 50,36l3208 1740c104,56 234,17 290,-86 23,-43 30,-90 23,-135l1 0c-37,-241 -74,-483 -111,-724 -36,-233 -1,-181 -193,-306l-910 -494 1379 -221zm1129 -312l24 155c5,31 33,52 64,47l155 -24c30,-5 51,-33 47,-63l-24 -156c-5,-30 -33,-51 -64,-46l-155 23c-30,5 -51,34 -47,64zm357 -835l52 339c10,66 -36,129 -102,139l-344 53c-66,10 -128,-36 -138,-102l-52 -339c-11,-66 35,-129 101,-139l344 -53c66,-10 128,36 139,102zm-1236 829l44 290c9,56 62,96 119,87l290 -45c57,-8 96,-62 87,-118l-45 -290c-8,-57 -62,-96 -118,-87l-290 44c-57,9 -96,62 -87,119z"/>
   <path class="fil3" style="mask:url(#id0)" d="M16716 9512l-36 -233 -31 -205 206 -32 413 -64 -26 -168 -1953 300 -609 94 429 -443 745 -771c9,-12 19,-24 28,-35l-1 -1c-5,-31 -3,-18 -9,-53l-120 -783 0 0c0,-1 -1,-3 -2,-4 -2,-1 -4,-1 -6,-1l-1 0 -1 1c-1,0 -2,1 -2,2l-6 6 -7 8 -2525 2611 -1 1c-1,1 -2,3 -2,4 0,2 1,3 3,5l0 0 0 1c2,1 -2,-2 1,0l3 1 3208 1740 2 1c1,0 2,0 3,0l0 0c1,-1 3,-2 3,-3l0 0 1 -2 0 0 0 -3 -33 -211 1 0 -79 -513 0 0 -11 -85 0 0c-4,-30 13,-15 3,-30 -10,-16 -2,9 -28,-8 -14,-8 -30,-18 -50,-32l0 0 0 0 0 0 -910 -493 -543 -294 611 -94 1175 -181 -2 -8 159 -25zm-823 -1560l0 0zm0 0l0 0zm0 0l0 0 0 0zm0 0c0,0 0,0 0,0 0,0 0,0 0,0zm2204 1499c-3,-7 -6,-13 0,0zm-8 -18l-2 -4 2 4zm-2 -4l0 0zm-3 4l0 0zm-2 4l0 0zm0 0l-14 18 14 -18zm-14 18l0 0 1 1 -1 -1 0 0zm1 1l0 0zm0 0l25 18 -25 -18zm25 18l0 1 0 0 0 -1 0 0 0 0 0 0zm0 0c1,-4 1,-11 2,-18 -1,7 -1,14 -2,18zm2 -18l1 -5 -1 5zm17 -607l-26 -169 -173 27 26 168 173 -26zm-848 614l13 85 85 -13 -13 -85 -85 13z"/>
   <path class="fil4" d="M11361 12891c-83,13 -161,-44 -173,-127l-45 -288 -499 77c-66,10 -128,-36 -139,-102l-52 -339c-8,-55 22,-107 71,-129l-1 -5 30 -4 2 0 624 -96 1413 -218 -954 -517c-133,-95 -112,-55 -138,-223l-120 -783c-19,-117 62,-227 179,-245 56,-8 110,5 153,34l3193 1732c104,56 142,186 86,290 -10,19 -23,35 -37,50l-2537 2623c-82,85 -217,87 -302,5 -35,-34 -56,-77 -63,-121l-1 0c-37,-242 -74,-483 -111,-725 -36,-232 -54,-173 92,-350l719 -744 -1390 205zm-1162 40l24 156c4,30 -16,59 -47,63l-155 24c-30,5 -59,-16 -64,-46l-24 -156c-4,-30 17,-59 47,-63l155 -24c31,-5 59,16 64,46zm-591 -689l53 339c10,66 72,112 138,102l344 -53c66,-10 112,-72 101,-138l-52 -340c-10,-66 -72,-112 -138,-101l-344 53c-66,10 -112,72 -102,138zm1428 419l45 290c8,57 -31,110 -87,119l-290 44c-57,9 -110,-30 -119,-86l-45 -290c-8,-57 31,-110 87,-119l290 -45c57,-8 110,31 119,87z"/>
   <path class="fil5" style="mask:url(#id2)" d="M11349 12445l36 232 158 -24 1 9 1177 -181 609 -94 -429 443 -717 741 -41 49 0 0c-19,24 -19,-2 -24,17 -5,17 7,-3 12,27 5,30 11,64 14,84l0 1 80 516 1 0 32 209 0 1c0,1 1,1 1,2 2,1 3,2 5,2 1,0 3,-1 4,-3l2537 -2622 3 -3c1,-2 -1,1 0,-1l0 -1 1 0c0,-2 0,-3 0,-5l0 0c0,-1 -1,-2 -3,-3l-3193 -1732 -7 -4 -10 -6c-2,-1 -1,-2 -2,-2l-1 0 -3 1c-2,0 -3,1 -4,2 -1,1 -1,4 -1,6l121 783 7 52 0 1 0 0 0 0 0 1 27 18 952 516 543 295 -612 94 -1414 217 -537 83 26 168 414 -63 205 -32 32 206zm352 -1502l0 0zm1 -1l-1 0 0 0 1 0zm1 1l0 0zm-1 -1l-1 1 0 0 1 -1zm-1624 2088l-26 -20 26 20zm-26 -20l0 0c0,6 -1,14 -3,24 5,8 8,16 10,22l19 -26 -19 26 19 -26m-4 -30c-9,5 -17,8 0,0zm-22 10l0 0 26 20 -26 -20zm26 20l14 -20 -14 20zm14 -20l5 -7 -5 7zm5 -7l0 0c-5,0 -14,-1 -23,-3 9,2 18,3 23,3 -5,0 -14,-1 0,0zm-19 27l0 0 0 0zm26 19l0 0 0 0zm0 0l-26 -19 26 19zm-26 -19l1 -1 6 -9 7 -10 0 0 5 -6 0 -1 0 0 0 0 0 0 0 0 0 0 -19 27zm19 -27l1 1 2 6c2,5 4,10 7,15l0 5c-2,7 -2,14 -3,19 1,-5 1,-12 3,-19l0 -5c-3,-5 -5,-10 -7,-15l-2 -6 -1 -1zm0 0l0 1 -5 6 0 0 -7 10 -6 9 18 -26zm7 46l-26 -19 -19 26 0 0 0 0c6,0 14,1 23,3l6 -3m0 0l0 0c6,-3 12,-6 16,-7m3 -19c-2,7 -2,14 -3,19 1,-5 1,-12 3,-19l0 -5 0 5zm1597 -2081c9,14 4,3 0,-5l-1 -1 -2 0 3 5 0 1zm-3 -7l0 0c0,0 0,0 0,0zm-1623 2088l0 0 0 0 0 0 0 0zm-251 -734l26 168 173 -26 -26 -169 -173 27zm1032 584l-13 -84 -84 13 13 84 84 -13z"/>
  </g>
 </g>
</svg>
