<?xml version="1.0" encoding="UTF-8"?>
<!DOCTYPE svg PUBLIC "-//W3C//DTD SVG 1.1//EN" "http://www.w3.org/Graphics/SVG/1.1/DTD/svg11.dtd">
<!-- Creator: CorelDRAW X7 -->
<svg xmlns="http://www.w3.org/2000/svg" xml:space="preserve" width="279.4mm" height="215.9mm" version="1.1" style="shape-rendering:geometricPrecision; text-rendering:geometricPrecision; image-rendering:optimizeQuality; fill-rule:evenodd; clip-rule:evenodd"
viewBox="0 0 27940 21590"
 xmlns:xlink="http://www.w3.org/1999/xlink">
 <defs>
  <style type="text/css">
   <![CDATA[
    .fil0 {fill:#FEFEFE}
    .fil7 {fill:#FFF212}
    .fil9 {fill:#EB8D36}
    .fil8 {fill:#91D8F7}
    .fil1 {fill:#96989A;fill-rule:nonzero}
    .fil2 {fill:black;fill-rule:nonzero}
    .fil3 {fill:url(#id8)}
    .fil6 {fill:url(#id9)}
    .fil5 {fill:url(#id10)}
    .fil4 {fill:url(#id11)}
   ]]>
  </style>
    <mask id="id0">
  <linearGradient id="id1" gradientUnits="userSpaceOnUse" x1="12459.8" y1="7994.16" x2="12523.7" y2="11252.1">
   <stop offset="0" style="stop-opacity:1; stop-color:white"/>
   <stop offset="1" style="stop-opacity:0; stop-color:white"/>
  </linearGradient>
     <rect style="fill:url(#id1)" x="6079" y="7799" width="12825" height="3649"/>
    </mask>
    <mask id="id2">
  <linearGradient id="id3" gradientUnits="userSpaceOnUse" x1="14923.1" y1="10642.2" x2="15013.5" y2="13408.9">
   <stop offset="0" style="stop-opacity:1; stop-color:white"/>
   <stop offset="1" style="stop-opacity:0; stop-color:white"/>
  </linearGradient>
     <rect style="fill:url(#id3)" x="9225" y="10381" width="11486" height="3290"/>
    </mask>
    <mask id="id4">
  <linearGradient id="id5" gradientUnits="userSpaceOnUse" x1="8252.11" y1="11816.1" x2="6410.11" y2="14265.4">
   <stop offset="0" style="stop-opacity:1; stop-color:white"/>
   <stop offset="1" style="stop-opacity:0; stop-color:white"/>
  </linearGradient>
     <rect style="fill:url(#id5)" x="5888" y="11770" width="2886" height="2541"/>
    </mask>
    <mask id="id6">
  <linearGradient id="id7" gradientUnits="userSpaceOnUse" x1="19737" y1="8699.69" x2="21675.3" y2="8419.19">
   <stop offset="0" style="stop-opacity:1; stop-color:white"/>
   <stop offset="1" style="stop-opacity:0; stop-color:white"/>
  </linearGradient>
     <rect style="fill:url(#id7)" x="19283" y="7289" width="2847" height="2540"/>
    </mask>
  <linearGradient id="id8" gradientUnits="userSpaceOnUse" x1="6720.87" y1="11726.2" x2="7934.25" y2="14355.1">
   <stop offset="0" style="stop-opacity:1; stop-color:#ED3237"/>
   <stop offset="1" style="stop-opacity:1; stop-color:#953132"/>
  </linearGradient>
  <linearGradient id="id9" gradientUnits="userSpaceOnUse" x1="14928.6" y1="13867.3" x2="15007.8" y2="10183.9">
   <stop offset="0" style="stop-opacity:1; stop-color:#4E77B9"/>
   <stop offset="1" style="stop-opacity:1; stop-color:#00A6D6"/>
  </linearGradient>
  <linearGradient id="id10" gradientUnits="userSpaceOnUse" x1="12447.9" y1="11654.9" x2="12535.5" y2="7582.23">
   <stop offset="0" style="stop-opacity:1; stop-color:#F58634"/>
   <stop offset="1" style="stop-opacity:1; stop-color:#F7D917"/>
  </linearGradient>
  <linearGradient id="id11" gradientUnits="userSpaceOnUse" x1="20198.2" y1="7253.69" x2="21221.5" y2="9865.03">
   <stop offset="0" style="stop-opacity:1; stop-color:#A8CF45"/>
   <stop offset="1" style="stop-opacity:1; stop-color:#00AB59"/>
  </linearGradient>
 </defs>
 <g id="Layer_x0020_1">
  <metadata id="CorelCorpID_0Corel-Layer"/>
  <rect class="fil0" y="4994" width="27940" height="11822"/>
  <g id="_442455640">
   <g>
    <path class="fil1" d="M6545 12500l-69 -450c-5,-33 -5,-66 -1,-98l-318 49c-77,12 -150,7 -218,-15 -73,-24 -134,-64 -184,-121 -5,-5 -9,-10 -14,-15 -22,-30 -41,-62 -56,-98 -13,-32 -22,-67 -28,-103 -5,-35 -6,-72 -3,-110 2,-27 6,-56 14,-88 1,-5 2,-9 3,-14l448 -1811 0 -1 1 -6c-97,-48 -152,-158 -126,-268l40 -175c17,-99 96,-181 201,-196l665 -103 8 -1 22 -3 0 0 1 0 963 -149c81,-12 156,-6 225,17 79,27 144,76 195,145l0 0c43,59 69,125 79,199 9,64 4,131 -14,200l0 0 0 1 -31 119 -1 4 463 -71 0 0c3,-1 6,-1 9,-2l945 -145c85,-13 163,-7 234,19 47,17 89,42 124,74l5 -5 1 0 2 -3c54,-53 111,-96 171,-129 67,-36 134,-59 204,-70l504 -78c1,-4 2,-8 3,-13l42 -168 1 0 24 -109c1,-7 3,-13 4,-20 15,-62 39,-122 71,-180 31,-56 70,-108 116,-155l1 0 2 -3c54,-53 111,-96 171,-129 67,-36 134,-60 204,-70l484 -75 0 0c29,-4 59,-3 90,4 128,30 208,159 178,287 -15,66 -32,134 -49,203 -14,55 -32,123 -53,203l-6 23 449 -68c82,-13 158,-6 229,19 16,6 32,13 47,21 36,-54 94,-93 164,-104l465 -71c85,-13 163,-7 234,19 8,3 16,6 24,10 31,-41 74,-71 126,-86l17 -5 1 0c13,-4 29,-7 46,-10 28,-6 47,-9 57,-10l28 -5 -1 -3c-16,-42 -23,-89 -24,-141 -1,-41 4,-84 13,-131l18 -89c10,-45 21,-86 36,-123l0 0c16,-41 35,-79 57,-113 28,-43 58,-78 91,-106 48,-40 102,-65 161,-74l466 -72c81,-13 154,6 219,56 49,37 84,87 106,149l0 0 0 1c15,42 23,89 24,141 0,34 -3,70 -9,108 0,4 -1,8 -1,12l-14 89 -1 -1c-1,4 -1,7 -2,11 -9,44 -20,84 -35,121l515 -79 0 0 9 -2 905 -139c85,-13 163,-6 234,19 67,25 122,64 166,118 16,-21 31,-40 45,-55l0 1 3 -4c54,-57 111,-103 172,-137 66,-38 136,-63 209,-74l1123 -172c83,-13 160,-7 230,18 80,28 146,78 197,150 41,59 68,124 78,193 10,63 7,129 -9,198l0 0 -25 121 -24 118 1292 -1337c26,-31 58,-58 95,-79 33,-19 69,-33 108,-41 10,-3 21,-4 31,-5 94,-11 185,15 257,68 70,51 122,128 141,219 2,9 3,18 4,27l68 442c5,30 6,39 6,39 7,42 10,70 3,110 -1,8 -3,17 -5,25 -14,54 -30,79 -57,114l500 -77 0 1c43,-7 85,-1 123,14l8 3c39,-30 86,-50 138,-59l1 0 0 0 198 -31c83,-13 165,10 229,57 63,46 109,118 122,202l0 1 1 0 30 195c13,83 -10,165 -57,229 -8,10 -17,21 -26,30l1 3 13 89c12,73 -8,144 -49,201l-1 -1c-41,57 -104,97 -178,109l-89 13c-45,7 -89,2 -130,-12 -43,43 -100,74 -166,84l-166 26c-71,10 -139,-5 -197,-39 -13,4 -26,8 -40,10l-103 16c36,24 60,46 88,91 36,57 40,91 50,160l0 0 0 1c1,6 -2,-12 6,41l0 0 0 1 63 411c1,4 2,8 2,12 1,7 2,14 2,21 2,29 1,59 -4,89l-1 0c-5,30 -14,59 -27,87 -6,16 -15,32 -25,46 -48,76 -121,128 -201,152l0 0 -1 0c-81,24 -170,20 -252,-17 -9,-4 -19,-9 -28,-14l-1841 -998 0 -1c-11,-6 -25,-14 -40,-26 -15,-10 -28,-21 -40,-33l0 0 -1 0 -1 7 0 0c-1,5 -2,10 -3,15l-33 141 0 0 -1 3 -29 119c-1,6 -2,11 -3,17 -15,62 -39,123 -74,183 -32,57 -71,110 -116,158 -4,3 -7,7 -11,11 -24,22 -49,43 -76,63 -27,20 -54,38 -82,54 -35,19 -67,34 -99,46 -34,12 -70,21 -106,27l-644 99 -18 2 -465 72c-78,12 -150,7 -219,-15l-12 -4c-19,21 -42,39 -69,53 -10,5 -22,10 -34,14 -7,3 -13,5 -20,7 -7,2 -14,4 -22,6 -9,2 -18,4 -27,6l-644 98c-76,12 -148,7 -217,-16 -14,-5 -28,-10 -41,-16 -36,48 -91,82 -155,91l-484 75c-77,12 -150,7 -218,-15 -13,-5 -26,-9 -38,-15 -37,49 -92,84 -156,93l-675 104c-77,12 -150,7 -219,-16 -12,-4 -23,-9 -35,-14 -21,28 -48,52 -81,68 -17,9 -35,16 -53,22 -6,2 -11,3 -16,4 -11,4 -23,6 -34,8l-644 99c-15,2 -32,4 -50,5 -7,1 -13,1 -20,1l-835 129c-78,12 -150,6 -219,-15 -11,-4 -22,-8 -32,-12 -37,46 -90,79 -153,89l-348 53c19,38 32,79 40,122 10,61 9,125 -4,194l0 0 -2 8 -35 148c17,-8 34,-15 51,-21 38,-14 75,-23 111,-29l1136 -175c84,-12 161,-6 231,20 36,-37 83,-64 138,-72l688 -106 9 -1 905 -139c85,-13 163,-7 234,19 70,26 128,68 172,126 19,-23 40,-46 62,-67 51,-55 106,-100 168,-135 66,-37 137,-62 211,-73l1083 -167 8 -1c83,-13 160,-7 231,18 56,20 105,50 147,92 6,-8 13,-15 19,-22l3 -3c52,-55 110,-100 173,-135 66,-36 136,-59 208,-70l1092 -168c74,-12 143,-8 208,11 35,-33 79,-56 129,-63l675 -104 8 -1 945 -145c85,-14 163,-7 234,19 78,28 140,76 186,145 3,3 5,6 7,9 38,56 62,120 71,191 8,61 4,125 -11,192l0 0 -28 120c-1,8 -3,15 -5,23l-19 70 -1 1 -27 107 -26 106 -1 0 -12 55c-16,102 -95,185 -201,201l-772 119 0 0 -4 0 -4 18 -2 10 -68 325c0,5 -1,10 -2,15l-52 237 -1 0 0 1 -54 240c-14,102 -94,188 -201,204l-484 74c-77,12 -150,7 -218,-15 -70,-23 -130,-61 -179,-115 -15,19 -32,37 -50,56l-2 1c-51,54 -108,98 -169,131 -64,35 -131,57 -202,68l0 0 -1 0c-87,14 -174,27 -260,40l-543 84 -297 46c-77,11 -150,6 -219,-16 -59,-19 -111,-49 -156,-91 -8,9 -17,19 -27,28l-4 5c-53,51 -109,93 -168,125 -63,34 -130,57 -198,67l-1100 169c-78,12 -151,7 -219,-15 -7,-2 -14,-4 -21,-7 -19,24 -44,44 -73,58 -11,6 -22,10 -35,15 -6,2 -13,5 -20,7 -15,5 -32,8 -49,11l-643 99c-76,12 -149,6 -217,-17 -14,-4 -28,-10 -42,-16 -36,48 -90,82 -155,92l-483 74c-77,12 -150,7 -218,-15 -11,-3 -20,-7 -30,-10 -36,45 -89,77 -151,87l-1598 245c-155,24 -285,-16 -387,-121 -4,-3 -7,-6 -10,-9 -13,16 -28,33 -45,50l-1 2c-53,55 -109,100 -169,133 -64,36 -132,60 -204,71l-1136 175c-77,11 -150,6 -218,-16 -70,-22 -130,-61 -180,-117 -6,-6 -12,-13 -17,-19 -24,-31 -42,-63 -56,-97 -14,-33 -23,-67 -29,-104 -5,-32 -6,-67 -4,-102l1 -7c2,-27 6,-56 14,-88 1,-5 2,-10 3,-15l93 -377 -1428 1477 -4 4 0 1 -1 0c-68,69 -159,104 -250,106 -92,1 -186,-33 -258,-102 -28,-28 -52,-60 -69,-94 -15,-29 -26,-59 -33,-89 -1,-6 -2,-13 -3,-19l-1 -4 0 0 -64 -415 -1 0c-5,-34 -6,-39 -6,-43 -12,-68 -18,-102 0,-168 13,-51 29,-79 56,-113l-104 17c-14,2 -27,2 -40,2 -45,49 -106,84 -177,95l-1 0 0 1 -167 26 0 0c-64,10 -127,-2 -181,-31 -35,26 -76,44 -122,51l-89 14c-74,11 -145,-9 -201,-50 -56,-41 -97,-104 -108,-178l-14 -88 0 0 0 -2c-12,-6 -23,-13 -34,-21 -64,-47 -110,-119 -123,-203l-28 -185c-3,-15 -5,-30 -5,-46l0 0 1 0c-3,-71 19,-139 59,-193 42,-58 105,-101 180,-119 10,-2 20,-4 31,-5l189 -29c52,-8 103,-3 150,14l121 -55 0 -1 17 -3 1 0 0 0 359 -55 121 -19c-36,-24 -58,-43 -87,-90l-1 0c-32,-52 -41,-109 -50,-170l5 27 -5 -27zm740 -673l1570 852c75,40 130,104 161,177l248 -1005 1 -4 1 -6c-96,-48 -151,-157 -126,-267l40 -175c17,-99 96,-181 201,-197l317 -48c-17,-36 -30,-75 -37,-115 -10,-58 -9,-120 3,-187 1,-6 2,-12 3,-18l26 -123c1,-5 2,-10 3,-15l32 -146 1 0 20 -91 -591 90 0 0 -3 0 -4 19 -2 9 -68 325c0,5 -1,10 -2,15l-53 237 0 0 0 1 -54 240c-14,103 -94,188 -202,204l-483 74c-77,12 -150,7 -219,-15 -30,-9 -58,-22 -84,-37 -28,52 -76,93 -137,112 -6,2 -12,4 -18,6l-5 2c-14,4 -28,8 -43,10l-496 76zm7378 -3626l173 -26 2 -4 3 -8 -174 27 -1 3 -1 1 1 0 -3 7z"/>
   </g>
   <g>
    <path class="fil2" d="M6624 12289l-69 -450c-6,-33 -6,-66 -2,-98l-318 49c-77,12 -150,7 -218,-15 -72,-23 -134,-64 -184,-121 -5,-5 -9,-10 -13,-15 -23,-29 -42,-62 -56,-98 -13,-32 -23,-67 -28,-103 -6,-35 -7,-72 -4,-110 2,-27 7,-56 14,-88 1,-4 2,-9 3,-14l448 -1811 0 0 2 -7c-97,-48 -152,-158 -127,-267l41 -176c17,-99 95,-180 200,-196l666 -103 7 -1 23 -3 0 0 0 0 963 -148c81,-13 157,-7 226,17 78,27 143,75 194,144l0 0c43,59 70,125 79,199 9,64 4,131 -13,200l-1 0 0 1 -31 119 -1 4 464 -71 0 0c3,-1 6,-1 8,-2l946 -145c85,-13 163,-7 233,19 48,17 89,42 125,74l5 -5 0 0 3 -3c53,-53 110,-96 171,-129 66,-36 134,-59 203,-70l505 -78c0,-4 1,-8 2,-13l43 -167 0 0 25 -110c1,-6 2,-13 4,-19 14,-63 38,-123 70,-181 32,-56 70,-108 117,-155l0 0 3 -3c53,-53 110,-96 171,-129 66,-36 134,-59 203,-70l484 -75 0 1c29,-5 60,-4 90,3 128,30 208,159 179,287 -16,66 -33,134 -50,203 -14,56 -31,123 -52,203l-6 24 448 -69c82,-13 159,-6 229,20 17,6 32,12 47,20 37,-54 95,-93 164,-103l466 -72c85,-13 163,-7 233,19 9,3 17,6 24,10 31,-40 74,-71 126,-86l18 -5 0 1c13,-4 29,-8 46,-11 29,-5 47,-9 58,-10l27 -5 -1 -3c-15,-42 -23,-89 -24,-141 0,-41 4,-84 14,-130l18 -89c9,-46 21,-87 35,-124l0 0c17,-41 36,-79 58,-113 27,-43 57,-78 90,-105 49,-41 103,-66 162,-75l466 -72c81,-12 154,6 218,56 49,37 84,87 107,149l-1 1 1 0c15,43 23,90 23,141 1,35 -2,71 -9,108 0,4 0,8 -1,12l-14 89 -1 0c0,3 -1,7 -2,10 -8,44 -20,84 -34,121l515 -79 0 0 8 -1 906 -140c85,-13 163,-6 233,20 67,24 122,63 166,117 16,-21 31,-40 45,-55l1 1 3 -3c54,-58 111,-104 171,-138 67,-38 137,-62 210,-74l1122 -172c83,-13 160,-7 231,18 80,28 145,79 196,151 42,59 68,123 79,192 9,63 6,129 -10,198l0 0 -25 121 -24 118 1292 -1337c27,-31 59,-57 95,-78 33,-20 70,-34 108,-42 10,-2 21,-4 32,-5 93,-11 184,15 256,68 70,52 122,128 141,219 2,9 3,18 4,27l69 442c4,30 5,39 5,39 7,43 11,70 3,110 -1,8 -3,17 -5,26 -13,54 -29,78 -57,113l500 -77 0 1c43,-6 85,-1 123,14l8 3c40,-30 87,-50 139,-58l1 -1 0 0 197 -31c83,-12 165,10 229,57 63,47 109,118 122,202l0 1 1 0 30 195c13,83 -10,165 -57,229 -8,11 -16,21 -25,30l0 3 14 89c11,73 -9,144 -50,201l-1 -1c-41,57 -104,98 -177,109l-90 14c-45,6 -89,2 -129,-13 -44,44 -101,74 -166,84l-167 26c-70,10 -139,-5 -196,-39 -13,5 -27,8 -41,10l-103 16c36,24 60,46 88,91 36,57 41,91 50,160l0 0 0 1c1,6 -1,-12 7,41l-1 0 1 1 63 411c1,4 1,8 2,12 1,7 1,14 1,21 2,29 1,59 -4,89l0 0c-6,30 -15,59 -27,88 -7,16 -15,31 -26,46 -48,75 -120,127 -201,151l0 0 -1 0c-81,24 -170,20 -251,-17 -10,-4 -19,-9 -28,-14l-1841 -998 0 0c-12,-7 -25,-15 -41,-26 -15,-11 -28,-22 -40,-33l0 -1 0 0 -2 8 0 0c-1,4 -1,9 -3,14l-32 141 -1 0 0 3 -30 120c0,5 -2,10 -3,16 -15,62 -39,123 -73,184 -32,56 -71,109 -117,157 -3,4 -7,7 -11,11 -23,22 -48,43 -75,63 -27,20 -55,38 -83,54 -34,19 -67,35 -98,46 -35,12 -71,21 -107,27l-643 99 -18 3 -466 71c-77,12 -150,7 -218,-15l-12 -4c-19,21 -43,39 -70,53 -10,5 -21,10 -34,15 -6,2 -13,4 -20,7 -6,1 -14,3 -22,5 -9,2 -18,4 -27,6l-643 99c-77,11 -149,6 -217,-17 -15,-5 -28,-10 -42,-16 -36,48 -91,82 -155,92l-483 74c-77,12 -150,7 -219,-15 -13,-4 -26,-9 -38,-15 -37,49 -91,84 -156,93l-674 104c-78,12 -151,7 -219,-16 -12,-4 -24,-8 -35,-13 -21,27 -49,51 -82,68 -16,8 -34,15 -53,21 -5,2 -11,3 -16,5 -11,3 -22,5 -34,7l-643 99c-16,2 -33,4 -51,6 -6,0 -13,0 -20,0l-835 129c-77,12 -150,7 -218,-15 -11,-4 -22,-8 -33,-12 -36,46 -90,79 -153,89l-348 53c19,39 32,79 40,122 11,61 9,126 -4,194l0 0 -2 8 -34 148c16,-7 33,-14 50,-21 38,-13 75,-23 112,-29l1136 -174c83,-13 160,-7 231,19 35,-37 83,-63 137,-72l688 -105 9 -2 905 -139c85,-13 163,-7 234,19 70,26 128,68 173,126 18,-23 39,-46 61,-67 51,-55 107,-100 168,-134 67,-38 137,-63 212,-74l1082 -167 8 -1c83,-13 161,-7 232,18 56,20 104,50 146,92 7,-8 13,-15 20,-22l2 -3c53,-55 111,-100 174,-134 66,-36 135,-60 208,-71l1091 -168c74,-11 144,-8 209,11 34,-33 78,-55 128,-63l675 -104 9 -1 945 -145c85,-13 163,-7 234,19 77,28 139,77 186,145 2,3 4,6 6,9 38,56 62,120 71,191 8,61 5,125 -11,192l0 0 -27 120c-2,8 -3,15 -5,23l-20 70 0 2 -27 106 -27 106 0 0 -13 56c-15,101 -95,184 -201,200l-772 119 0 0 -4 0 -3 19 -2 9 -68 325c-1,5 -2,10 -3,15l-52 237 -1 0 0 1 -54 240c-14,103 -94,188 -201,204l-484 74c-77,12 -150,7 -218,-15 -70,-22 -130,-61 -179,-115 -15,19 -32,37 -50,56l-1 2c-52,54 -108,97 -170,130 -63,35 -131,58 -202,68l0 0 -1 0c-86,14 -173,27 -260,41l-543 83 -297 46c-77,12 -150,7 -218,-15 -60,-20 -112,-50 -157,-92 -8,9 -17,19 -26,28l-5 5c-53,52 -109,93 -167,125 -64,34 -130,57 -199,67l-1100 170c-77,11 -150,6 -219,-16 -7,-2 -13,-4 -20,-7 -20,24 -45,44 -74,59 -10,5 -22,10 -34,14 -7,3 -13,5 -20,7 -16,5 -33,9 -50,11l-643 99c-76,12 -148,6 -217,-16 -14,-5 -28,-11 -41,-17 -37,48 -91,83 -155,92l-484 75c-77,11 -150,6 -218,-16 -10,-3 -20,-6 -30,-10 -36,45 -89,78 -151,87l-1597 246c-156,24 -285,-17 -388,-122 -3,-3 -6,-6 -10,-9 -13,16 -28,33 -44,50l-2 2c-53,55 -109,100 -168,133 -65,36 -133,60 -205,71l-1135 175c-78,12 -150,7 -219,-15 -70,-23 -130,-62 -180,-118 -6,-6 -12,-12 -17,-19 -23,-30 -42,-63 -56,-97 -13,-33 -23,-67 -28,-103 -5,-33 -7,-67 -4,-103l0 -7c2,-27 7,-56 14,-88 1,-5 2,-10 3,-15l94 -377 -1429 1477 -4 5 0 0 0 0c-69,69 -159,104 -251,106 -92,1 -186,-33 -257,-102 -29,-28 -52,-60 -70,-94 -15,-29 -26,-59 -32,-89 -2,-6 -3,-12 -4,-19l-1 -3 0 0 -64 -416 0 0c-5,-33 -6,-39 -7,-43 -12,-67 -17,-102 0,-167 13,-52 30,-79 57,-113l-105 16c-14,2 -27,3 -40,2 -44,50 -106,84 -177,95l-1 0 1 1 -167 26 -1 0c-64,10 -127,-2 -181,-31 -35,26 -76,45 -122,52l-89 13c-73,12 -145,-8 -201,-49 -56,-42 -96,-104 -108,-179l-13 -88 0 0 -1 -2c-11,-6 -23,-13 -33,-21 -64,-47 -111,-119 -123,-203l-29 -185c-3,-15 -4,-30 -4,-46l0 0 0 0c-3,-71 19,-138 59,-193 43,-58 105,-101 180,-118 10,-3 20,-5 31,-6l190 -29c52,-8 103,-2 149,14l121 -55 0 -1 17 -3 1 0 0 0 359 -55 121 -19c-36,-24 -58,-43 -87,-90l0 0c-33,-52 -42,-109 -50,-170l4 27 -4 -27zm740 -672l1570 851c74,41 129,104 160,177l249 -1005 0 -4 2 -6c-97,-47 -152,-157 -127,-267l41 -175c17,-99 95,-181 200,-196l317 -49c-17,-36 -29,-74 -36,-115 -11,-58 -10,-120 2,-187 1,-6 2,-12 4,-18l26 -123c1,-5 1,-10 3,-15l32 -146 0 0 20 -91 -590 90 0 0 -4 1 -4 18 -1 9 -68 325c-1,5 -2,10 -3,15l-52 237 -1 0 0 1 -54 240c-14,103 -94,188 -201,204l-484 75c-77,11 -150,6 -218,-16 -30,-9 -58,-22 -84,-37 -29,52 -77,93 -137,112 -6,2 -13,4 -19,6l-5 2c-14,5 -28,8 -43,10l-495 77z"/>
   </g>
   <path class="fil3" d="M6786 13387l-5 1c-48,7 -93,-26 -100,-73l-26 -166 -287 44c-38,6 -74,-20 -80,-58l-30 -195c-5,-32 13,-62 41,-75l-1 -2 18 -3 1 0 358 -55 814 -125 -549 -298c-77,-55 -65,-31 -80,-128l-69 -451c-10,-67 36,-130 103,-141 32,-4 63,3 88,20l1837 996c60,33 82,107 50,167 -6,11 -13,21 -21,29l-1460 1509c-47,49 -125,50 -174,3 -20,-20 -32,-44 -36,-70l0 0c-22,-139 -43,-278 -65,-417 -20,-134 -30,-99 54,-201l413 -428 -794 117zm-674 24l14 89c2,18 -10,34 -27,37l-90 14c-17,2 -33,-10 -36,-27l-14 -89c-3,-18 10,-34 27,-37l89 -14c18,-2 34,10 37,27zm-340 -397l30 196c6,38 42,64 80,58l198 -30c38,-6 64,-42 58,-80l-30 -195c-6,-38 -42,-65 -80,-59l-197 31c-38,6 -65,41 -59,79zm821 242l26 166c5,33 -17,64 -50,69l-167 25c-32,5 -63,-17 -68,-50l-26 -166c-5,-33 18,-64 50,-69l167 -25c33,-5 63,17 68,50z"/>
   <path class="fil4" d="M21366 8793c48,-8 80,-53 73,-100l-25 -166 287 -44c38,-6 64,-42 58,-80l-30 -195c-4,-32 -30,-55 -61,-59l0 -2 -1191 183 435 -449c57,-75 52,-49 37,-146l-69 -451c-11,-67 -74,-113 -141,-103 -32,5 -59,22 -78,45l-1453 1502c-47,49 -46,127 3,174 9,9 18,16 29,21l1845 1001c60,33 135,10 167,-49 13,-25 18,-52 14,-78l0 0c-21,-139 -43,-278 -64,-417 -21,-133 0,-104 -111,-176l-523 -283 798 -128zm645 -179l13 89c3,18 19,30 37,27l89 -14c18,-2 30,-19 27,-36l-14 -90c-2,-17 -19,-29 -36,-27l-90 14c-17,3 -29,19 -26,37zm204 -481l30 196c6,38 -20,74 -58,79l-198 31c-38,6 -74,-21 -79,-59l-30 -195c-6,-38 20,-74 58,-80l198 -30c38,-6 74,20 79,58zm-710 477l25 167c5,33 36,55 68,50l167 -26c33,-5 55,-35 50,-68l-25 -167c-5,-32 -36,-55 -69,-50l-166 26c-33,5 -55,36 -50,68z"/>
   <path class="fil5" d="M7241 9168c9,-56 10,-102 2,-137l25 15c53,13 92,43 116,91 24,48 29,106 15,175l-25 128 -11 52 -6 33 -15 63 4 0 -30 127 -5 28 -59 236 -217 34 206 -845zm10172 -1015c-29,32 -54,66 -78,103 -23,37 -38,77 -47,121l-17 64c-6,20 -11,41 -13,63l-79 344c-10,32 -18,63 -24,94l-20 94 -29 134c-11,46 -21,92 -29,138l-33 142 -29 136c-19,88 -6,157 41,207 45,54 109,74 191,62l466 -72 18 -3 643 -99c42,-6 83,-21 123,-44 40,-22 78,-50 112,-83 68,-71 112,-149 132,-234l34 -136 33 -142c7,-46 17,-92 28,-138l30 -134 43 -188 70 -343 26 -126c18,-79 8,-145 -30,-200 -43,-60 -109,-83 -197,-70l-1123 173c-89,14 -169,59 -242,137zm696 95c45,-57 96,-102 151,-134 -4,9 -6,20 -6,30 0,11 -2,22 -6,35l-19 99c-6,31 -14,64 -23,98 0,3 -2,11 -6,24l-31 166 -36 167 -48 216 -74 320c-13,69 -45,132 -93,190 -49,57 -103,102 -161,135l10 -51 49 -212 5 -32 68 -320 49 -216 80 -335c15,-63 45,-123 91,-180zm-2197 41l-688 105 -43 189c53,13 91,43 114,91 22,48 27,107 13,175l-223 1034c-11,44 -14,84 -8,119 5,36 17,66 36,90 45,54 108,74 191,61l484 -74 295 -1390 34 -132c9,-41 11,-77 6,-110 48,17 82,49 103,95 21,47 24,102 9,165l-253 1042c-23,86 -12,155 32,209 45,54 107,74 187,62l643 -99c12,-2 22,-5 31,-9l44 -184c-53,-13 -92,-43 -116,-91 -24,-48 -28,-106 -11,-176 10,-50 27,-122 51,-216l69 -286 64 -262 38 -151 30 -132c18,-78 10,-144 -25,-196 -37,-61 -101,-84 -193,-70l-905 139 -9 2zm-1431 -76c14,38 36,54 69,49l461 -71c33,-5 63,-29 91,-73 29,-44 49,-95 61,-155l13 -88c12,-59 12,-108 -2,-145 -13,-37 -34,-54 -64,-49l-466 71c-29,5 -58,29 -86,73 -28,43 -48,95 -61,154l-18 89c-12,60 -11,108 2,145zm-353 527c54,13 92,43 114,92 23,47 26,106 9,175l-96 410 -9 29 -77 325 -36 147 -34 136c-20,88 -9,156 31,204 42,55 104,75 187,63l674 -104 44 -189c-53,-13 -92,-43 -116,-91 -24,-47 -28,-106 -11,-175 16,-54 30,-108 41,-161l37 -160 33 -123 28 -127 84 -340 34 -132c9,-41 11,-78 6,-112 -5,-35 -16,-64 -32,-89 -19,-27 -46,-47 -80,-60 -33,-13 -72,-16 -117,-9l-379 58 -198 30c-41,7 -66,11 -75,14l-17 5 -45 184zm-1948 118l-44 188c54,13 93,44 117,92 24,47 27,106 11,175l-224 906 -29 137c-12,44 -15,84 -9,119 5,36 17,65 36,90 45,54 109,74 191,61l852 -131c13,1 31,0 54,-4l644 -98c11,-2 22,-5 30,-10l44 -184c-53,-13 -92,-43 -116,-91 -24,-48 -28,-106 -11,-175l252 -1047c19,-79 10,-144 -25,-196 -37,-61 -101,-85 -193,-70l-466 71 -344 1393 -33 137c-7,19 -10,37 -10,54l-2 48c-39,-19 -67,-50 -83,-95 -16,-44 -16,-98 -2,-160l49 -217 67 -285 64 -262 38 -151 35 -133c18,-78 9,-143 -26,-195 -43,-60 -107,-84 -193,-71l-674 104zm-1804 377c-63,65 -104,139 -125,224l-29 132c-16,57 -30,113 -42,170l-37 173c-10,32 -19,63 -25,93l-20 91c-7,47 -17,93 -28,139l-30 134 -32 145 -29 137c-17,84 -5,152 36,203 45,54 108,74 191,61l1620 -249 39 -187c-53,-13 -93,-44 -118,-91 -26,-48 -32,-106 -18,-175l36 -160 33 -159 247 -992c32,-147 65,-288 101,-422 35,-134 68,-267 100,-399l-484 74c-86,14 -167,58 -243,133 -63,64 -104,139 -125,224l-29 131 -43 168 -37 167 -666 103c-86,13 -167,57 -243,132zm477 826l49 -212 37 -169c13,-56 27,-113 42,-170 15,-66 46,-127 95,-185 48,-57 104,-101 166,-132l-199 780c-7,47 -17,93 -28,138l-30 134 -32 146 -29 136c-5,22 -8,43 -8,63 0,20 1,37 3,52 -51,-17 -90,-48 -116,-94 -27,-46 -33,-101 -19,-167l36 -160 33 -160zm-2603 -594l-44 188c54,13 92,44 114,92 23,48 27,106 13,175l-222 1033c-20,88 -11,158 27,210 45,53 109,74 192,61l483 -74 58 -259 52 -237 71 -338 114 -556 34 -133c11,-50 12,-92 3,-127l15 7c53,13 92,43 116,91 24,48 28,106 11,175l-86 327 772 -119 18 -78 27 -106 26 -106 22 -78 30 -132c18,-79 10,-144 -25,-196 -37,-61 -101,-85 -193,-70l-945 145 -9 1 -674 104zm-58 -318l34 -133c21,-81 12,-148 -26,-200 -42,-57 -106,-79 -192,-66l-963 148 -22 4 -675 103 -43 189c53,13 91,43 114,91 22,48 27,107 13,175l-451 1823c-11,44 -14,84 -9,119 6,36 18,66 37,90 44,54 108,74 191,62l483 -75 286 -1184 209 -32 -146 590 -33 142 -33 136c-11,45 -14,84 -9,118 5,34 17,63 36,87 42,57 106,79 192,66l639 -98 15 -5 15 -4 49 -185c-54,-16 -93,-47 -117,-93 -23,-47 -27,-104 -10,-174l36 -160c12,-53 26,-106 41,-160l26 -100 46 -188 58 -230 58 -229 46 -186 26 -97c-1,-6 1,-16 5,-28l27 -118 5 -28 42 -170z"/>
   <path class="fil6" d="M18921 10714c54,13 92,44 114,92 23,48 27,106 14,175l-223 1033c-20,88 -11,158 28,209 44,54 108,74 191,62l483 -75 58 -258 52 -238 71 -338 114 -555 34 -133c11,-50 12,-92 3,-128l15 7c54,13 92,44 116,92 24,47 28,106 11,175l-86 327 772 -119 18 -78 27 -106 27 -106 22 -79 29 -132c19,-78 10,-143 -25,-195 -37,-61 -101,-85 -193,-71l-945 146 -9 1 -674 104 -44 188zm-8425 662c24,46 28,101 14,164l-87 367 -106 448 -109 453c-37,148 -66,275 -89,382 -14,65 -44,126 -90,181 -46,56 -97,100 -153,133l511 -2113c9,-41 11,-78 6,-110 45,17 79,49 103,95zm-918 307l-451 1823c-11,44 -14,83 -9,119 6,35 18,65 37,90 45,53 108,74 191,61l1136 -174c86,-14 164,-57 234,-132 31,-32 59,-67 84,-106 24,-38 40,-79 49,-123l465 -1993c16,-78 4,-143 -34,-194 -43,-61 -108,-84 -197,-70l-1588 244 -44 189c53,13 91,43 114,91 22,48 27,106 13,175zm2003 1c-41,24 -79,54 -113,90 -31,32 -58,67 -79,105 -22,38 -37,78 -46,119l-34 132 -90 400 -87 399 -32 142 -29 136c-21,85 -9,154 36,208 48,53 111,73 191,61l1597 -246 44 -188c-53,-13 -92,-43 -116,-91 -24,-48 -28,-106 -11,-176l78 -320 61 -251 83 -344 31 -127c21,-82 12,-149 -27,-201 -39,-60 -103,-84 -192,-70l-1136 175c-44,7 -87,22 -129,47zm307 1404c-22,-47 -26,-103 -12,-169l193 -870c16,-69 50,-133 100,-192 50,-59 106,-104 167,-135l-15 80 -24 94 -45 180 -56 222 -54 224 -45 182c-14,50 -21,82 -22,94 -13,53 -24,107 -34,160 -11,53 -22,106 -35,159 -7,32 -10,53 -8,65 -51,-16 -88,-48 -110,-94zm1327 -1678l-44 188c54,13 92,44 114,92 23,48 27,106 14,175l-223 1033c-11,44 -14,84 -9,120 6,35 18,65 37,90 44,53 108,74 191,61l483 -74 295 -1390 34 -133c9,-40 11,-77 6,-109 48,16 83,48 103,95 21,47 24,101 10,164l-253 1043c-23,85 -13,155 32,208 45,54 107,75 187,63l643 -99c12,-2 22,-5 30,-10l45 -184c-54,-13 -92,-43 -117,-91 -23,-47 -27,-106 -11,-175 11,-50 28,-122 51,-217l70 -285 64 -262 38 -151 30 -132c18,-79 9,-144 -26,-196 -37,-61 -101,-84 -192,-70l-905 139 -9 1 -688 106zm2207 -240c-66,62 -110,135 -130,220 -2,25 -6,47 -12,68l-18 64 -181 800 -28 145 -29 136c-17,85 -5,152 36,204 45,53 108,74 191,61l1101 -169c82,-13 161,-55 234,-127 32,-32 60,-68 84,-106 24,-39 41,-80 49,-123l29 -137 32 -145c11,-32 19,-64 24,-95l20 -94 -750 116 -42 169 -62 274 -33 141c-45,-17 -78,-49 -98,-94 -21,-45 -24,-99 -9,-162 28,-147 59,-292 91,-437 33,-144 66,-288 102,-433 17,-66 49,-129 96,-187 47,-59 101,-104 163,-135l-12 70 -135 539 745 -115c3,-3 4,-8 3,-14l74 -343c3,-21 7,-42 13,-63 6,-21 10,-43 12,-68 19,-78 9,-143 -30,-195 -42,-60 -108,-83 -197,-70l-1091 168c-92,14 -172,60 -242,137zm1747 -68l-30 131 -92 403 -89 397 -32 146 -29 136c-18,85 -6,152 36,204 44,53 108,74 191,61l1100 -169c89,-14 167,-56 235,-127 31,-32 59,-67 83,-106 25,-39 41,-80 50,-123l33 -137 32 -146 19 -85 -754 116c-11,48 -16,69 -16,64 1,-5 1,-4 -1,3l-63 273 -33 141c-45,-17 -78,-49 -99,-96 -20,-47 -23,-102 -9,-165l84 -371 936 -144 39 -192 18 -89 26 -127 25 -127 30 -131c15,-78 4,-145 -35,-199 -42,-57 -107,-79 -196,-65l-1092 167c-91,14 -172,59 -243,133 -31,32 -57,67 -79,105 -21,39 -36,78 -45,119zm677 268l48 -216c17,-67 50,-128 99,-186 49,-57 104,-101 166,-132l-17 66 -38 153 -72 286 -186 29z"/>
   <path class="fil7" style="mask:url(#id0)" d="M7124 9146c3,-22 5,-41 5,-56 0,-12 0,-23 -2,-31l-12 -50 -52 8 0 0 -22 3 0 0 -595 91 -4 18 6 4c33,27 60,61 79,102 17,37 28,78 31,121 3,40 0,83 -9,127l-1 6 -451 1822 0 1c-4,14 -6,28 -7,43 -1,10 -1,20 0,30 2,8 4,15 6,22 2,4 4,7 6,11 8,8 16,13 24,16 14,4 33,5 56,1l404 -62 267 -1106 19 -78 79 -12 209 -32 177 -27 -43 174 -145 588 0 0 0 0 0 0 0 0 -33 141 -1 2 -33 136 0 2c-4,14 -6,28 -8,42 0,11 0,21 1,27l0 1c1,8 3,15 5,20 2,4 4,8 7,12l2 3c6,8 14,13 22,16 14,5 32,5 56,2l590 -91 6 -22 -4 -3 0 -1c-33,-26 -59,-58 -79,-96l0 0c-19,-38 -31,-80 -33,-125 -3,-40 1,-83 12,-129l0 0 37 -159 -1 0c7,-29 13,-57 20,-84l1 0c8,-32 16,-61 23,-85l0 0 24 -94 0 0 46 -189 0 0 58 -230 58 -229 0 0 46 -186 0 -2 23 -84c0,-4 1,-9 2,-14 1,-9 3,-18 6,-28l26 -109 4 -25 2 -9 42 -170 0 -1 34 -131 0 -1c7,-26 9,-49 7,-67 -2,-12 -6,-24 -13,-33l-1 0c-6,-8 -13,-14 -22,-17 -13,-5 -32,-5 -55,-1l-641 98c9,5 17,11 25,17 33,26 60,60 80,100 19,37 30,78 34,122 4,41 1,84 -7,129l-22 109 9 -2 -41 173 -30 126 -4 22 -2 9 -59 236 -19 77 -79 13 -217 33 -177 27 43 -173 205 -839zm10378 -913c-14,15 -25,29 -35,41 -10,14 -20,29 -31,46l0 -1c-7,11 -13,24 -18,38 -6,14 -10,28 -12,42l-2 9 -18 64 -1 1c-1,7 -3,14 -5,23 -2,8 -3,16 -4,23l-1 8 -1 4 -79 343 -2 10c-4,11 -8,24 -12,41l0 0c-4,14 -7,28 -9,39l0 3 -20 93 0 1 -29 134 -1 4c-6,23 -11,44 -15,64l0 0c-4,21 -8,42 -12,65l-1 7 -33 140 0 0 -29 136 0 1c-6,27 -8,50 -4,69 3,12 8,23 15,31l5 5c7,9 16,15 26,18 14,4 32,5 56,1l389 -60 21 -104 10 -52 1 -4 48 -208 3 -24 2 -10 69 -320 0 -1 49 -216 0 -2 80 -334 0 0c9,-40 24,-80 43,-119 19,-37 42,-73 71,-108 26,-34 55,-64 86,-91 7,-6 13,-12 20,-18l-449 69c-30,5 -59,15 -86,30 -30,17 -59,40 -86,69l1 0zm411 1398l444 -68c12,-2 26,-5 39,-10 15,-6 29,-12 42,-19 16,-10 32,-20 46,-30 14,-11 28,-22 41,-35 27,-28 48,-56 64,-85 16,-28 28,-59 36,-91l0 -1 33 -135 0 0 32 -138c4,-23 9,-46 14,-71l0 0c5,-23 10,-46 16,-69l-1 0 30 -134 0 -2 44 -188 0 0 69 -340 26 -126 1 -3c5,-24 7,-46 4,-64 -2,-15 -8,-29 -16,-40 -6,-9 -14,-15 -23,-19 -14,-5 -34,-5 -59,-1l-359 55 -63 138c0,9 -1,18 -3,26l0 0c-1,7 -3,15 -5,24l-19 95 0 0c-4,20 -7,38 -11,53l0 0c-3,14 -7,29 -12,46 0,4 -1,8 -2,12 -1,5 -3,11 -5,17l-30 160 0 3 -36 167 0 0 -49 217 0 1 -73 317 1 0c-9,44 -24,87 -44,128 -20,40 -46,79 -76,115 -29,33 -59,64 -91,91l-5 4zm-1983 -1224l-608 93 -4 18 6 4c33,27 59,61 79,102 17,37 28,78 31,121 3,40 0,82 -9,127l0 2 -223 1033 -1 5c-4,14 -6,28 -7,43 -1,11 -1,21 0,29l1 0c1,9 3,16 6,22 2,5 4,9 6,12 7,8 15,13 24,16 13,4 32,5 55,1l402 -62 278 -1308 1 -5 33 -128 0 0c3,-15 5,-28 6,-39 0,-10 0,-19 -2,-28l-10 -68 -55 9 0 -1 -9 1 0 1zm291 -45c16,10 31,21 44,34l0 0c30,27 53,60 70,98l0 0c16,37 26,76 28,118 2,39 -2,79 -11,121l-1 2 -253 1042 0 4c-7,26 -10,48 -7,66l0 1c2,13 7,24 15,34 8,9 17,15 26,19 12,4 30,4 51,1l594 -92 4 -17 -4 -4c-34,-26 -61,-59 -81,-98l0 -1c-19,-39 -30,-80 -33,-125 -3,-40 2,-83 12,-128l0 0c6,-30 13,-61 21,-94 7,-31 17,-73 31,-127l0 0 69 -285 64 -262 0 -1 38 -151 1 0 29 -129 0 0c6,-26 7,-48 5,-66 -2,-14 -6,-26 -14,-37l-3 -5c-4,-7 -8,-11 -14,-13 -12,-4 -32,-5 -58,-1l-623 96zm-1631 -227l396 -61c5,-5 10,-11 16,-21 10,-15 18,-32 25,-49 7,-19 13,-38 18,-59l-1 0 14 -88 1 -6c4,-16 6,-30 6,-42l-391 60c-5,4 -10,11 -16,20 -10,16 -18,32 -25,50l0 1c-8,20 -14,41 -19,63l-18 89c-3,16 -5,30 -6,43zm-323 540l5 5c33,26 59,60 78,101 18,38 29,80 31,125 2,40 -3,83 -14,128l1 0 -96 410 -3 10 -7 20 -77 325 0 1 -37 146 0 0 -33 135c-6,28 -8,52 -5,72l0 0c2,12 6,22 12,28l3 5c6,8 13,13 21,15 12,5 30,5 53,1l594 -91 4 -17 -4 -4c-34,-26 -61,-59 -81,-99l0 0c-19,-39 -30,-81 -33,-126 -3,-40 2,-84 13,-131l1 -6c7,-21 14,-46 21,-76l1 0c4,-18 10,-44 17,-76l1 -1 36 -161 1 -4 34 -123 0 0 27 -122 0 -3 84 -339 1 -1 33 -129 -1 0c4,-15 6,-28 6,-39 1,-11 0,-21 -1,-29l-1 -1c-1,-10 -3,-19 -5,-25 -2,-5 -5,-10 -8,-15 -2,-2 -4,-4 -6,-6l0 0c-5,-4 -10,-6 -16,-9l0 1c-6,-3 -14,-4 -22,-5 -10,-1 -21,0 -35,2l0 0 -379 58 -198 31 -12 1 -4 18zm-1989 289l-4 17 5 4 0 0c34,26 60,59 80,99l0 0c20,39 31,81 34,126 2,40 -2,84 -13,131l0 0 -223 903 -29 136 -2 5c-3,14 -6,28 -7,42l0 0c-1,11 0,21 1,30 1,9 3,16 6,22 1,4 3,7 5,10 7,9 16,15 25,18 14,4 32,5 56,1l611 -94c-22,-14 -41,-30 -58,-50l0 0c-24,-28 -43,-59 -55,-95l0 0c-12,-35 -19,-73 -19,-113 -1,-37 4,-75 13,-115l0 0 48 -216 0 -1 68 -285 0 -1 64 -262 0 -1 38 -151 1 -1 33 -129 0 0c6,-26 8,-48 6,-66 -2,-13 -7,-26 -14,-37l0 0c-6,-8 -14,-14 -22,-17 -12,-4 -31,-5 -54,-1l-594 91zm744 1419l42 -6 12 -2 16 1c1,1 0,0 4,0 4,0 12,-1 22,-3l593 -91 4 -18 -5 -3c-32,-26 -59,-59 -79,-99l0 0c-20,-39 -31,-81 -34,-126 -2,-41 2,-84 13,-131l252 -1046 0 0c6,-26 8,-48 5,-66 -2,-14 -6,-26 -13,-36l-4 -6c-3,-6 -8,-10 -14,-12 -12,-5 -32,-5 -58,-1l-387 59 -325 1315 0 0 -34 137 -2 8c-1,5 -3,9 -3,13 -1,3 -1,6 -1,8l0 0 -2 48 -2 57zm-2562 -1063c-23,24 -43,50 -58,77 -15,27 -26,57 -34,90l0 -1 -30 131 -1 5c-9,35 -16,62 -21,82 -8,33 -15,60 -20,81l1 0 -37 174 -1 4 -3 8c-4,13 -8,26 -11,41 -4,14 -7,27 -10,38l0 2 -19 91c-4,19 -8,42 -14,69 -5,23 -10,47 -16,70l1 0 -30 134 0 0 -32 146 0 0 -29 135 0 0c-5,27 -6,50 -3,69 2,13 7,25 14,34l0 0c8,9 16,15 26,18 13,4 32,5 56,1l623 -96c-12,-7 -24,-15 -35,-24l0 0c-31,-25 -57,-56 -77,-91l-1 0c-21,-37 -35,-78 -40,-123 -4,-41 -2,-84 8,-129l0 -2 37 -160 0 0 32 -156 0 -3 49 -212 1 0 37 -169c8,-34 14,-63 20,-87 6,-23 13,-50 22,-82l0 0c9,-43 24,-85 44,-125 20,-38 45,-76 75,-112 30,-35 61,-65 95,-92l5 -4 -447 69c-30,4 -58,14 -86,29 -30,17 -60,40 -91,70zm587 1367l679 -104 3 -15 -6 -5c-33,-25 -61,-58 -82,-97 -20,-38 -32,-79 -37,-123l0 0c-4,-42 -2,-85 7,-131l1 -3 37 -160 0 0 32 -156 1 -6 246 -988 0 0c14,-63 30,-136 50,-218 19,-78 36,-147 52,-209 16,-61 33,-128 51,-199l6 -25 -307 48c-30,4 -58,14 -86,29 -30,17 -60,40 -90,70 -24,24 -44,50 -59,77 -15,27 -26,57 -34,89l0 0 -30 131 0 2 -43 168 0 0 -25 113 8 -4 -64 252 -197 776c-3,21 -8,44 -13,68l0 0c-5,24 -10,47 -16,70l1 0 -30 134 0 0 -32 146 0 0 -29 135 -1 5c-2,5 -3,12 -4,18 -1,6 -1,11 -1,15l1 0c0,9 0,16 0,20l0 0c0,6 1,11 1,13l10 64zm-2699 -1114l-4 17 5 5c34,27 60,60 79,101 18,38 28,78 31,122 4,40 1,82 -8,127l-1 2 -222 1033 -1 1c-7,31 -9,56 -6,77 2,12 5,23 11,32 7,8 15,14 24,17 14,4 32,4 56,1l403 -62 39 -178 0 0 52 -238 0 0 71 -337 0 0 114 -555 2 -6 32 -127 0 0c4,-18 6,-34 7,-48 0,-11 -1,-20 -3,-28l-14 -59 -64 10 0 0 -9 1 0 1 -594 91zm930 -143c8,5 17,11 25,17 33,26 60,59 80,99l0 0c19,39 30,81 33,126 3,41 -2,84 -13,131l0 3 -40 150 512 -79 0 0 27 -107 26 -106 1 -3 22 -78 29 -126 0 -1c6,-25 7,-47 5,-66 -2,-14 -6,-26 -13,-36l-4 -6c-4,-6 -8,-10 -14,-12 -12,-5 -32,-5 -58,-1l-618 95z"/>
   <path class="fil8" style="mask:url(#id2)" d="M19059 10649l6 5c33,26 59,60 78,101l0 0c18,38 28,78 32,121 3,40 0,83 -9,128l-1 1 -222 1034 -1 1c-6,30 -8,56 -6,77 2,12 6,23 11,31 7,9 15,14 24,17 14,5 32,5 56,1l403 -62 40 -178 -1 0 52 -237 1 0 70 -337 0 0 114 -555 2 -6 33 -127 0 0c3,-19 6,-35 6,-48 0,-11 -1,-20 -2,-28l-15 -59 -64 10 -9 1 -594 92 -4 17zm934 -160c9,5 17,11 25,17l0 0c33,26 60,59 80,99l0 0c19,38 31,80 33,126 3,40 -1,84 -13,130l0 3 -40 151 512 -79 0 -1 27 -106 27 -106 1 -4 22 -78 28 -126 0 0c6,-26 8,-48 5,-66 -1,-13 -6,-26 -13,-37l-4 -5c-3,-6 -8,-10 -14,-13 -12,-4 -32,-4 -58,0l-618 95zm-9391 832c20,38 31,78 35,121 3,39 -1,81 -11,124l0 1 -86 368 -106 447 -1 1 -109 453c-15,60 -32,129 -49,205 -14,61 -27,119 -39,174l0 0c-10,42 -24,83 -43,122 -20,39 -44,76 -72,111 -28,33 -56,62 -86,88 -7,6 -13,11 -19,16l448 -69c29,-4 56,-14 82,-28 29,-17 56,-39 83,-67l2 -2c12,-12 24,-25 35,-40 12,-14 22,-30 33,-46l0 0c8,-13 15,-27 20,-40 5,-12 9,-26 12,-42l1 -4 465 -1990c5,-24 6,-45 2,-63 -2,-14 -7,-26 -15,-36l-1 -3c-7,-9 -15,-15 -24,-18 -14,-5 -33,-6 -58,-2l-611 94c15,10 30,21 43,34 28,25 51,55 69,92l0 -1zm-871 2275l29 -120 510 -2111 0 0c3,-15 5,-28 6,-38 0,-10 0,-19 -1,-28l-11 -68 -671 103 -4 18 5 4c33,27 60,61 79,102 18,37 28,78 31,121 3,40 0,83 -8,127l-2 6 -451 1822 0 1c-4,14 -6,28 -7,42l0 0c-1,11 -1,21 1,30 1,9 3,16 5,22 2,5 5,9 7,12 7,8 15,13 24,16 13,4 32,4 55,1l403 -62zm1911 -1809c-16,9 -32,20 -46,31 -15,12 -29,25 -42,38l-1 2c-11,11 -22,24 -33,38l0 0c-9,12 -18,26 -27,42 -9,15 -16,29 -20,42 -5,12 -9,26 -13,43l-1 4 -34 129 1 0 -91 399 0 0 -86 399 0 2 -33 139 0 0 -29 136 0 3c-6,27 -8,49 -5,68 3,14 8,26 17,36l0 0c19,19 46,25 81,20l611 -94c-13,-8 -25,-17 -36,-27 -31,-26 -56,-59 -75,-98 -18,-37 -28,-77 -31,-120 -3,-39 0,-81 10,-124l0 -1 193 -870 1 -2c11,-45 26,-87 47,-127 21,-41 47,-79 78,-115 29,-35 61,-66 94,-93l-444 68c-15,2 -29,6 -43,11 -14,5 -28,12 -43,21zm484 1441l671 -104 4 -17 -5 -4 0 0c-33,-26 -59,-59 -79,-99l-1 1c-19,-39 -30,-81 -33,-126 -3,-41 2,-85 13,-131l0 -1 78 -320 0 -1 61 -250 0 0 83 -344 1 0 30 -127 0 -1c7,-27 9,-49 6,-67 -1,-13 -5,-24 -12,-33l-5 -6c-5,-8 -11,-14 -18,-16 -13,-5 -31,-5 -56,-2l-391 60 -19 104 -15 80 -2 7 -24 95 0 0 -45 179 0 0 -56 222 -1 0 -53 223 0 0 -45 182 -1 2c-6,24 -11,43 -14,58l-4 17 -1 9 -2 8c-5,18 -10,44 -17,77 -7,30 -12,56 -16,77 -6,30 -11,57 -17,82l0 1c-4,19 -10,47 -19,81l0 0c-2,12 -4,21 -5,26l9 58zm1187 -1712l-4 17 6 5c33,26 59,60 78,101 18,38 28,78 32,122 3,40 0,82 -9,127l-1 2 -222 1033 -2 5c-3,14 -6,28 -7,42l0 0c0,11 0,21 1,30 2,8 4,16 6,22 2,4 3,7 5,10 7,9 16,15 25,18 14,4 32,4 56,1l402 -62 277 -1309 2 -5 33 -128 0 0c3,-15 5,-28 5,-39 1,-9 0,-18 -1,-28l-10 -67 -56 8 -9 1 -607 94zm898 -138c16,9 31,21 45,33l0 0c29,27 52,60 69,98 17,37 26,77 29,119 2,39 -2,79 -12,121l0 1 -253 1043 -1 3c-7,27 -9,49 -6,67 2,13 7,24 15,34l0 0c8,10 16,16 25,19 13,4 30,5 52,1l593 -91 4 -18 -4 -3c-33,-26 -60,-59 -80,-99l0 0c-20,-39 -31,-81 -33,-126 -3,-39 1,-82 12,-127l0 0c6,-30 13,-62 21,-95 7,-30 17,-72 30,-126l0 0 70 -285 64 -262 0 -1 38 -151 0 0 29 -129 0 -1c6,-25 8,-47 6,-66 -2,-13 -7,-25 -14,-36l-3 -6c-4,-6 -9,-10 -14,-12 -13,-5 -32,-5 -59,-1l-623 96zm1292 -120c-24,23 -45,48 -60,74 -15,25 -26,52 -33,82 -2,11 -3,22 -5,33 -3,15 -6,29 -10,42l0 0 -17 64 0 0 -180 791 0 0 -27 145 -1 3 -29 136 0 0c-5,26 -6,49 -3,69 3,13 7,24 14,33l0 0c8,10 16,16 26,19 13,4 32,4 56,1l607 -94c-16,-10 -31,-21 -45,-34 -27,-26 -50,-58 -66,-95l0 1c-17,-36 -26,-75 -28,-118 -2,-37 1,-76 10,-117l0 0c13,-65 28,-139 45,-220 15,-70 31,-143 48,-220l0 0c21,-94 37,-165 49,-217 14,-58 31,-130 53,-218l0 -1c11,-42 26,-83 46,-122 20,-39 45,-76 73,-111 28,-36 59,-67 93,-95l7 -6 -444 69c-32,4 -61,15 -88,30 -29,16 -57,39 -83,68l-8 8zm544 1367l287 -44c28,-5 55,-14 82,-29 29,-15 58,-37 86,-64 12,-12 23,-26 35,-41 11,-14 22,-29 32,-45l0 0c9,-13 16,-27 21,-40 5,-13 9,-27 12,-42l0 -2 29 -136 0 -1 32 -146 1 -2 3 -9 2 -7 -498 77 -22 90 -63 273 -33 141 -6 27zm371 -1587l-18 107 -12 69 -2 9 -91 364 485 -74 60 -277 0 0c2,-11 4,-21 6,-30 3,-16 6,-30 9,-41l1 0c1,-7 3,-13 4,-20l0 -1c2,-8 3,-16 4,-24l1 -10 1 -6c6,-25 7,-46 4,-64l1 0c-2,-12 -7,-24 -14,-34l-2 -2c-6,-9 -14,-15 -23,-19 -14,-5 -33,-5 -58,-1l-1 0 -355 54zm867 90l-29 132 0 0 -93 403 0 0 -89 396 1 0 -32 146 -1 0 -28 135 -1 0c-5,26 -6,49 -2,69 2,13 7,24 14,34l0 -1c7,10 16,16 25,19 14,4 32,4 56,1l564 -87 7 -34c-3,-3 -6,-6 -9,-9 -28,-26 -50,-58 -66,-96 -17,-36 -26,-76 -29,-118 -2,-38 2,-79 12,-121l0 0 83 -371 18 -80 81 -12 854 -132 22 -110 18 -89 0 0 26 -127 26 -126 0 -3 29 -128 0 0c5,-25 5,-46 2,-65 -3,-15 -9,-30 -17,-42 -6,-8 -13,-13 -21,-15 -14,-5 -34,-5 -60,-1l-342 52 -30 117 -16 66 0 0 -38 153 0 0 -72 286 -19 78 -79 12 -186 28 -173 27 38 -171 49 -216 1 -4c11,-44 27,-84 47,-123 20,-38 46,-74 76,-110 29,-35 61,-66 95,-93l4 -3 -447 69c-32,5 -62,15 -90,30 -29,16 -57,38 -84,66l-2 2c-12,13 -23,25 -33,38 -9,12 -18,26 -27,42 -8,15 -15,29 -20,43l0 0c-5,12 -9,26 -12,42l-1 1zm657 1205l264 -40 0 0c31,-5 60,-15 87,-29 28,-15 54,-36 79,-62l1 -1c12,-13 24,-26 36,-41l1 0c9,-13 20,-28 31,-46l1 0c8,-13 15,-27 20,-40 5,-13 9,-27 12,-42l2 -5 32 -135 0 0 13 -60 -500 77 -1 1c-26,150 -52,291 -78,423z"/>
   <path class="fil9" style="mask:url(#id4)" d="M6773 13131l21 134 91 -14 1 5 677 -104 350 -54 -247 255 -412 426 -24 28 1 0c-12,14 -12,-1 -15,10 -2,10 5,-2 8,16 2,17 6,36 8,48l0 1 45 296 1 0 18 120 1 1c0,0 0,1 0,1 1,1 2,1 3,1 1,0 2,0 2,-1l1460 -1509 1 -2c1,-1 0,1 0,0l1 -1 0 0c0,-1 0,-2 0,-2l0 0c0,-1 -1,-2 -2,-2l-1837 -997 -4 -2 -6 -4c0,0 0,-1 0,-1l-1 0 -2 1c-1,0 -2,0 -2,1 -1,1 -1,2 -1,4l70 450 4 30 0 0 0 0 0 1 0 0 16 11 547 296 312 170 -351 54 -814 125 -309 48 15 97 238 -37 118 -18 18 118zm203 -864l0 0zm0 -1l0 0 0 0 0 0zm1 1l0 0zm0 0l-1 0 0 0 1 0zm-935 1200l-15 -11 15 11zm-15 -11l0 0c0,4 0,8 -1,14 2,5 4,9 5,13l11 -16 -11 16 11 -16m-2 -16c-5,2 -10,4 0,0zm-13 5l0 0 15 11 -15 -11zm15 11l9 -11 -9 11zm9 -11l2 -4 -2 4zm2 -4l0 0c-3,0 -8,0 -13,-1 5,1 10,1 13,1 -3,0 -8,0 0,0zm-11 15l0 0 0 0zm16 12l-1 0 1 0zm0 0l-16 -12 16 12zm-16 -12l1 0 4 -5 4 -6 0 0 2 -3 0 -1 0 0 0 0 0 0 0 0 0 0 -11 15zm11 -15l1 1 1 3c1,3 2,6 4,9l0 2c-1,5 -1,9 -1,12 0,-3 0,-7 1,-12l0 -2c-2,-3 -3,-6 -4,-9l-1 -3 -1 -1zm0 0l0 1 -2 3 0 0 -4 6 -4 5 10 -15zm4 27l-15 -12 -11 16 0 0 0 0c4,0 8,0 14,1l3 -1m0 0l0 0c4,-2 7,-4 9,-4m2 -12c-1,5 -1,9 -1,12 0,-3 0,-7 1,-12l0 -2 0 2zm919 -1196c5,8 2,1 0,-4l-1 0 -1 0 2 3 0 1zm-2 -5l0 0c0,0 0,0 0,0zm-934 1201l0 0 0 0 0 0 0 0zm-144 -422l15 97 99 -15 -15 -97 -99 15zm594 337l-8 -49 -48 7 7 49 49 -7z"/>
   <path class="fil7" style="mask:url(#id6)" d="M21316 8680l-21 -135 -18 -118 119 -18 238 -37 -15 -97 -1124 173 -350 54 246 -255 429 -443c5,-7 11,-14 16,-20l0 -1c-3,-18 -2,-10 -5,-30l-70 -451 0 0c0,-1 0,-2 -1,-2 -1,-1 -2,-1 -3,-1l-1 0 -1 1c0,0 0,0 -1,1l-3 4 -4 4 -1453 1502 0 1c-1,0 -1,1 -1,2 0,1 0,2 1,3l0 0 0 0c2,1 -1,-1 1,0l2 1 1845 1001 1 0c1,1 1,1 2,0l0 0c1,0 2,0 2,-1l0 0 0 -1 0 -1 0 -1 -18 -121 0 0 -45 -295 0 0 -7 -49 0 0c-2,-17 7,-9 2,-18 -6,-9 -1,5 -16,-4 -8,-5 -17,-11 -29,-18l0 0 0 0 0 0 -524 -284 -312 -170 352 -54 675 -104 0 -4 91 -14zm-474 -898l0 0zm0 0l0 0zm0 0l1 0 -1 0zm1 0c0,0 0,0 -1,0 1,0 1,0 1,0zm1268 862c-2,-4 -4,-7 0,0zm-5 -10l-1 -2 1 2zm-1 -2l0 0zm-2 2l0 0zm-1 2l0 0zm0 0l-8 10 8 -10zm-8 10l0 1 0 0 0 0 0 -1zm0 1l0 0zm0 0l15 11 -15 -11zm15 11l0 0 0 0 0 0 0 0 0 0 0 0zm0 0c0,-3 0,-7 1,-11 -1,4 -1,8 -1,11zm1 -11l1 -3 -1 3zm10 -349l-15 -97 -100 15 15 97 100 -15zm-488 353l7 49 49 -8 -7 -48 -49 7z"/>
  </g>
 </g>
</svg>
