<?xml version="1.0" encoding="UTF-8"?>
<!DOCTYPE svg PUBLIC "-//W3C//DTD SVG 1.1//EN" "http://www.w3.org/Graphics/SVG/1.1/DTD/svg11.dtd">
<!-- Creator: CorelDRAW X7 -->
<svg xmlns="http://www.w3.org/2000/svg" xml:space="preserve" width="279.4mm" height="215.9mm" version="1.1" style="shape-rendering:geometricPrecision; text-rendering:geometricPrecision; image-rendering:optimizeQuality; fill-rule:evenodd; clip-rule:evenodd"
viewBox="0 0 27940 21590"
 xmlns:xlink="http://www.w3.org/1999/xlink">
 <defs>
  <style type="text/css">
   <![CDATA[
    .fil0 {fill:#FEFEFE}
    .fil1 {fill:black}
   ]]>
  </style>
 </defs>
 <g id="Layer_x0020_1">
  <metadata id="CorelCorpID_0Corel-Layer"/>
  <rect class="fil0" y="4994" width="27940" height="11822"/>
  <g id="_376970600">
   <path class="fil1" d="M17368 9599l11 -2c99,-15 168,-109 153,-209l-53 -346 600 -92c80,-12 135,-87 123,-167l-63 -408c-10,-66 -64,-116 -128,-123l-1 -5 -2489 383 908 -939c119,-157 109,-103 78,-306l-145 -942c-22,-141 -154,-238 -295,-216 -67,10 -124,45 -163,94l-3039 3142c-99,102 -96,265 6,364 19,18 39,33 61,44l3860 2093c125,68 281,21 349,-103 28,-52 36,-109 28,-162l1 0c-45,-291 -89,-582 -134,-872 -43,-280 -1,-218 -232,-368l-1095 -594 1659 -266zm1359 -376l29 187c6,37 40,62 76,56l187 -28c37,-6 62,-40 56,-77l-28 -187c-6,-36 -40,-62 -77,-56l-187 29c-36,5 -61,40 -56,76zm429 -1004l63 408c12,79 -43,154 -123,167l-413 63c-80,12 -155,-43 -167,-122l-63 -408c-12,-80 43,-155 123,-167l413 -64c79,-12 155,43 167,123zm-1487 997l54 349c10,68 74,115 142,104l349 -53c68,-11 115,-75 105,-143l-54 -349c-10,-68 -74,-115 -143,-104l-348 53c-68,11 -116,75 -105,143z"/>
   <path class="fil1" d="M10831 13427c-100,15 -194,-54 -209,-154l-53 -345 -601 92c-80,12 -155,-43 -167,-122l-63 -409c-10,-66 27,-129 85,-155l-1 -6 36 -5 3 0 750 -116 1701 -262 -1148 -622c-161,-114 -135,-66 -166,-268l-145 -942c-22,-141 75,-273 216,-295 67,-10 132,6 184,41l3842 2084c125,68 172,224 104,349 -12,22 -27,42 -45,60l-3053 3156c-98,102 -261,105 -363,6 -42,-41 -68,-92 -76,-146l-1 0c-45,-290 -89,-581 -134,-871 -43,-280 -65,-208 111,-421l866 -896 -1673 247zm-1399 48l29 187c5,37 -20,71 -56,77l-187 28c-37,6 -71,-19 -77,-56l-28 -187c-6,-36 19,-71 56,-76l187 -29c36,-5 71,20 76,56zm-711 -829l63 408c12,79 88,135 167,122l413 -63c80,-13 135,-88 123,-167l-63 -408c-12,-80 -87,-135 -167,-123l-413 64c-80,12 -135,87 -123,167zm1718 504l54 349c10,68 -37,132 -105,143l-349 53c-68,11 -132,-36 -142,-104l-54 -349c-10,-68 37,-132 105,-143l349 -53c68,-11 132,36 142,104z"/>
  </g>
 </g>
</svg>
