<?xml version="1.0" encoding="UTF-8"?>
<!DOCTYPE svg PUBLIC "-//W3C//DTD SVG 1.1//EN" "http://www.w3.org/Graphics/SVG/1.1/DTD/svg11.dtd">
<!-- Creator: CorelDRAW X7 -->
<svg xmlns="http://www.w3.org/2000/svg" xml:space="preserve" width="279.4mm" height="215.9mm" version="1.1" style="shape-rendering:geometricPrecision; text-rendering:geometricPrecision; image-rendering:optimizeQuality; fill-rule:evenodd; clip-rule:evenodd"
viewBox="0 0 27940 21590"
 xmlns:xlink="http://www.w3.org/1999/xlink">
 <defs>
  <style type="text/css">
   <![CDATA[
    .fil0 {fill:#FEFEFE}
    .fil1 {fill:black}
   ]]>
  </style>
 </defs>
 <g id="Layer_x0020_1">
  <metadata id="CorelCorpID_0Corel-Layer"/>
  <rect class="fil0" y="4994" width="27940" height="11822"/>
  <g id="_376975496">
   <rect class="fil1" x="8564" y="5499" width="10813" height="10813"/>
   <g>
    <path class="fil0" d="M16692 9859l8 -2c80,-12 135,-87 123,-167l-43 -277 482 -74c63,-10 107,-70 98,-134l-51 -327c-8,-53 -51,-92 -102,-98l-1 -4 -1994 306 727 -752c96,-125 88,-82 63,-244l-116 -755c-18,-113 -123,-191 -236,-173 -54,8 -100,36 -131,75l-2434 2517c-79,82 -77,212 5,292 15,14 31,26 48,35l3092 1676c101,55 226,17 280,-83 22,-41 29,-86 22,-129l1 0c-36,-233 -71,-466 -107,-699 -35,-224 -1,-174 -186,-295l-877 -475 1329 -213zm1088 -301l23 150c5,29 33,49 62,45l149 -23c30,-5 50,-32 45,-62l-23 -149c-4,-30 -32,-50 -61,-45l-150 23c-29,4 -49,32 -45,61zm344 -805l50 327c10,64 -34,124 -98,134l-331 51c-64,10 -124,-35 -134,-98l-50 -327c-10,-64 34,-124 98,-134l331 -51c64,-10 124,34 134,98zm-1191 799l43 280c8,54 60,92 114,83l280 -43c54,-8 92,-59 83,-114l-43 -279c-8,-55 -59,-93 -114,-84l-279 43c-55,8 -93,60 -84,114z"/>
    <path class="fil0" d="M11455 12925c-79,12 -155,-43 -167,-123l-43 -277 -481 74c-63,10 -124,-34 -133,-98l-51 -327c-8,-53 22,-104 68,-125l0 -4 29 -4 1 -1 601 -92 1363 -210 -920 -498c-128,-92 -108,-53 -133,-215l-116 -755c-17,-113 60,-218 173,-236 54,-8 106,5 148,33l3077 1669c100,54 138,180 83,280 -9,18 -22,34 -35,48l-2446 2528c-79,82 -209,84 -291,5 -34,-33 -54,-74 -61,-117l0 0c-36,-233 -72,-465 -108,-698 -34,-224 -52,-167 89,-337l694 -718 -1341 198zm-1120 39l23 149c5,30 -15,57 -45,62l-149 23c-30,4 -57,-16 -62,-45l-23 -150c-4,-29 16,-57 45,-61l150 -23c29,-5 57,16 61,45zm-569 -665l50 327c10,64 70,108 134,98l331 -51c64,-9 108,-70 98,-133l-50 -327c-10,-64 -70,-108 -134,-98l-331 51c-64,9 -108,70 -98,133zm1376 404l43 280c8,54 -29,106 -84,114l-279 43c-55,9 -106,-29 -115,-84l-43 -279c-8,-55 30,-106 84,-114l280 -43c54,-9 106,29 114,83z"/>
   </g>
  </g>
 </g>
</svg>
